<svg
  width="104"
  height="84"
  viewBox="0 0 104 84"
  fill="none"
  xmlns="http://www.w3.org/2000/svg"
>
<g clip-path="url(#clip0_119_1471)">
<path
      fill-rule="evenodd"
      clip-rule="evenodd"
      d="M52 0C74.7215 0 93.1666 18.7895 93.1666 42C93.1666 65.2105 74.75 84 52 84C29.25 84 10.8333 65.1814 10.8333 42C10.8333 18.8186 29.2785 0 52 0ZM52 8.46399C33.8684 8.46399 19.1579 23.4723 19.1579 41.9709C19.1579 60.4695 33.8684 75.4778 52 75.4778C70.1316 75.4778 84.8421 60.4695 84.8421 41.9709C84.8421 23.4723 70.1316 8.46399 52 8.46399Z"
      fill="#E55E25"
    />
<path d="M53.1404 7.76562H50.8882V76.2338H53.1404V7.76562Z" fill="#E55E25" />
<path d="M59.9825 7.76562H57.7303V76.2338H59.9825V7.76562Z" fill="#E55E25" />
<path d="M66.8246 7.76562H64.5724V76.2338H66.8246V7.76562Z" fill="#E55E25" />
<path d="M73.6667 10.7031H71.4145V73.2668H73.6667V10.7031Z" fill="#E55E25" />
<path d="M80.9649 15.0371H78.7127V68.9332H80.9649V15.0371Z" fill="#E55E25" />
<path d="M46.2697 7.76562H44.0175V76.2338H46.2697V7.76562Z" fill="#E55E25" />
<path d="M39.4276 7.76562H37.1754V76.2338H39.4276V7.76562Z" fill="#E55E25" />
<path d="M32.5855 10.7031H30.3333V73.2668H32.5855V10.7031Z" fill="#E55E25" />
<path d="M25.7434 15.0371H23.4912V68.9332H25.7434V15.0371Z" fill="#E55E25" />
<path
      d="M3.02193 24.9561H2.99342C1.3402 24.9561 0 26.3234 0 28.0101V55.9616C0 57.6483 1.3402 59.0156 2.99342 59.0156H3.02193C4.67515 59.0156 6.01535 57.6483 6.01535 55.9616V28.0101C6.01535 26.3234 4.67515 24.9561 3.02193 24.9561Z"
      fill="#E55E25"
    />
<path
      fill-rule="evenodd"
      clip-rule="evenodd"
      d="M1.25439 33.5655C1.25439 32.2275 2.30922 31.1514 3.62062 31.1514H16.6491C17.9605 31.1514 19.0154 32.2275 19.0154 33.5655C19.0154 34.9034 17.9605 35.9796 16.6491 35.9796H3.62062C2.30922 35.9796 1.25439 34.9034 1.25439 33.5655Z"
      fill="#E55E25"
    />
<path
      fill-rule="evenodd"
      clip-rule="evenodd"
      d="M1.25439 50.4356C1.25439 49.0977 2.30922 48.0215 3.62062 48.0215H16.193C17.5044 48.0215 18.5592 49.0977 18.5592 50.4356C18.5592 51.7736 17.5044 52.8497 16.193 52.8497H3.62062C2.30922 52.8497 1.25439 51.7736 1.25439 50.4356Z"
      fill="#E55E25"
    />
<path
      fill-rule="evenodd"
      clip-rule="evenodd"
      d="M101.007 24.9561C99.353 24.9561 98.0131 26.3231 98.0131 28.0101V55.9616C98.0131 57.6486 99.353 59.0156 101.007 59.0156C102.66 59.0156 104 57.6486 104 55.9616V28.0101C104 26.3231 102.66 24.9561 101.007 24.9561Z"
      fill="#E55E25"
    />
<path
      fill-rule="evenodd"
      clip-rule="evenodd"
      d="M102.746 33.5655C102.746 32.2275 101.691 31.1514 100.379 31.1514H87.3508C86.0394 31.1514 84.9846 32.2275 84.9846 33.5655C84.9846 34.9034 86.0394 35.9796 87.3508 35.9796H100.379C101.691 35.9796 102.746 34.9034 102.746 33.5655Z"
      fill="#E55E25"
    />
<path
      fill-rule="evenodd"
      clip-rule="evenodd"
      d="M102.746 50.4356C102.746 49.0977 101.691 48.0215 100.379 48.0215H87.3508C86.0394 48.0215 84.9846 49.0977 84.9846 50.4356C84.9846 51.7736 86.0394 52.8497 87.3508 52.8497H100.379C101.691 52.8497 102.746 51.7736 102.746 50.4356Z"
      fill="#E55E25"
    />
<path d="M85.5548 40.8369H18.4452V43.1347H85.5548V40.8369Z" fill="#E55E25" />
<path
      fill-rule="evenodd"
      clip-rule="evenodd"
      d="M52 0C74.7215 0 93.1667 18.7895 93.1667 42C93.1667 65.2105 74.75 84 52 84V75.536C70.1316 75.536 84.8421 60.5277 84.8421 42.0291C84.8421 23.5305 70.1316 8.46399 52 8.46399V0Z"
      fill="#E55E25"
    />
<path d="M53.1118 7.76562H52V76.2338H53.1118V7.76562Z" fill="#E55E25" />
<path d="M59.9825 7.76562H57.7303V76.2338H59.9825V7.76562Z" fill="#E55E25" />
<path d="M66.8246 7.76562H64.5724V76.2338H66.8246V7.76562Z" fill="#E55E25" />
<path d="M73.6667 10.7031H71.4145V73.2668H73.6667V10.7031Z" fill="#E55E25" />
<path d="M80.9649 15.0371H78.7127V68.9332H80.9649V15.0371Z" fill="#E55E25" />
<path
      fill-rule="evenodd"
      clip-rule="evenodd"
      d="M101.007 24.9561C99.353 24.9561 98.0131 26.3231 98.0131 28.0101V55.9616C98.0131 57.6486 99.353 59.0156 101.007 59.0156C102.66 59.0156 104 57.6486 104 55.9616V28.0101C104 26.3231 102.66 24.9561 101.007 24.9561Z"
      fill="#E55E25"
    />
<path
      fill-rule="evenodd"
      clip-rule="evenodd"
      d="M102.746 33.5655C102.746 32.2275 101.691 31.1514 100.379 31.1514H87.3508C86.0394 31.1514 84.9846 32.2275 84.9846 33.5655C84.9846 34.9034 86.0394 35.9796 87.3508 35.9796H100.379C101.691 35.9796 102.746 34.9034 102.746 33.5655Z"
      fill="#E55E25"
    />
<path
      fill-rule="evenodd"
      clip-rule="evenodd"
      d="M102.746 50.4356C102.746 49.0977 101.691 48.0215 100.379 48.0215H87.3508C86.0394 48.0215 84.9846 49.0977 84.9846 50.4356C84.9846 51.7736 86.0394 52.8497 87.3508 52.8497H100.379C101.691 52.8497 102.746 51.7736 102.746 50.4356Z"
      fill="#E55E25"
    />
<path d="M85.5548 40.8369H52V43.1347H85.5548V40.8369Z" fill="#E55E25" />
</g>
<defs>
<clipPath id="clip0_119_1471">
<rect width="104" height="84" fill="white" />
</clipPath>
</defs>
</svg>
