<svg width="44" height="77" viewBox="0 0 44 77" fill="none" xmlns="http://www.w3.org/2000/svg">
<path opacity="0.6" d="M11.9617 9.83191L11.8493 9.81384L11.735 9.8551C11.2429 10.0327 10.7558 10.427 10.2766 10.9579C9.79214 11.4948 9.28109 12.2102 8.74269 13.0911L8.73192 13.1087L8.72235 13.127C7.84604 14.8005 6.9961 16.5983 6.1723 18.5202C5.34284 20.4551 4.69989 22.3274 4.24552 24.1365L4.2386 24.164L4.23438 24.1918C3.96705 25.9513 4.16308 27.3268 5.06984 28.032L5.11621 28.068L5.17102 28.0891C6.12834 28.458 7.00739 29.3359 7.78238 30.8088C8.5566 32.2803 9.20828 34.3111 9.72729 36.9199C10.8593 42.6099 10.6571 48.5164 9.11736 54.6466C7.57391 60.7917 5.12298 66.3245 1.76753 71.2515L1.7132 71.3313L1.68583 71.4231C1.29527 72.7337 1.30173 73.9352 1.73846 74.9948L1.74414 75.0085L1.75065 75.0218C1.95299 75.4346 2.23928 75.747 2.6281 75.8968C3.01696 76.0466 3.45206 76.0121 3.9009 75.8501L4.06182 75.7921L4.16856 75.6434C9.68723 67.9561 13.7717 59.1635 16.4263 49.2738C19.2173 39.0661 19.8434 30.0149 18.2762 22.1374C17.6706 19.0932 16.7374 16.4266 15.4722 14.1433C14.9135 12.8561 14.3544 11.8448 13.7907 11.127C13.2304 10.4135 12.6255 9.93853 11.9617 9.83191ZM36.2467 1.06762L36.1343 1.04955L36.0199 1.09081C35.5279 1.26839 35.0408 1.6627 34.5616 2.19366C34.0771 2.73051 33.5661 3.44592 33.0277 4.32679L33.0169 4.3444L33.0073 4.36269C32.131 6.03618 31.2811 7.83405 30.4573 9.75586C29.6278 11.6909 28.9849 13.5631 28.5305 15.3722L28.5236 15.3997L28.5194 15.4275C28.252 17.187 28.4481 18.5626 29.3548 19.2677L29.4012 19.3037L29.456 19.3249C30.4133 19.6937 31.2924 20.5716 32.0674 22.0446C32.8416 23.5161 33.4933 25.5468 34.0123 28.1556C35.1443 33.8457 34.942 39.7521 33.4023 45.8823C31.8589 52.0274 29.408 57.5602 26.0525 62.4872L25.9982 62.567L25.9708 62.6588C25.5802 63.9694 25.5867 65.1709 26.0234 66.2305L26.0291 66.2443L26.0356 66.2575C26.238 66.6703 26.5243 66.9827 26.9131 67.1325C27.3019 67.2823 27.737 67.2478 28.1859 67.0858L28.3468 67.0278L28.4535 66.8791C33.9721 59.1919 38.0566 50.3994 40.7112 40.5099C43.5022 30.302 44.1284 21.2507 42.5612 13.3731C41.9556 10.3289 41.0224 7.66229 39.7572 5.37901C39.1985 4.09185 38.6394 3.08054 38.0757 2.36271C37.5154 1.64922 36.9104 1.17423 36.2467 1.06762Z" stroke="#DF5D27"/>
</svg>
