<svg
  width="104"
  height="84"
  viewBox="0 0 104 84"
  fill="none"
  xmlns="http://www.w3.org/2000/svg"
>
<g clip-path="url(#clip0_119_1508)">
<path
      d="M90.1975 15.3985C79.1362 3.28951 67.4016 -1.83535 56.2201 0.59598C53.9117 1.09655 51.6273 1.93083 49.4151 3.05114C48.6937 3.43253 48.2368 4.21914 47.9963 4.93423L48.3089 5.10109C48.3089 5.10109 47.3952 10.6788 47.6837 18.4734C47.5394 11.6085 48.3089 6.88883 48.3089 6.79348C48.3089 6.79348 48.5975 4.86272 49.5593 4.38599C60.7168 -1.28711 74.6396 0.452961 89.2597 16.3519C103.375 31.7027 105.347 53.1079 99.1667 57.4938C98.9744 57.6368 98.6618 57.8037 98.3251 57.9706L98.4453 58.3043C97.724 58.5426 96.9785 58.7095 96.2571 58.8287C90.991 59.6868 85.8692 57.7322 80.8435 55.134C80.6992 55.0625 80.5549 54.991 80.4347 54.9195C80.1462 54.7765 79.8816 54.6334 79.5931 54.4904C79.3045 54.3474 79.04 54.2044 78.7515 54.0375C73.7499 51.344 68.7723 48.3167 63.7947 47.1249C62.2557 46.7674 60.308 46.7912 58.0958 47.1488C57.2782 47.2918 56.4366 47.4586 55.5709 47.6732C55.5949 47.7208 55.619 47.7923 55.643 47.84C55.7633 48.0545 55.8595 48.2929 55.9556 48.5074C57.2301 51.3678 57.687 54.1567 57.2782 56.8979C57.1579 57.6607 56.9896 58.4234 56.7492 59.1624V59.2101C56.7492 59.2101 56.7492 59.2101 56.7492 59.2339C56.7011 59.3531 56.653 59.4723 56.6049 59.5914C56.6049 59.6391 56.5568 59.6868 56.5327 59.7583C56.2923 60.4019 55.9797 61.0455 55.643 61.6414C51.5311 69.1022 24.936 78.327 20.4393 79.9002C15.2934 81.6879 9.23379 81.9978 5.91541 81.9025C22.339 90.4598 76.2507 70.5801 92.5059 62.5948C94.3575 61.8797 97.724 60.7356 98.8782 59.4484C99.5996 59.2339 100.08 59.0432 100.369 58.8287C102.317 57.4223 103.543 54.6096 103.904 50.7004C104.697 41.8094 100.754 26.983 90.1734 15.3985H90.1975Z"
      fill="#E55E25"
    />
<path
      d="M84.234 29.0569C82.6469 29.486 81.8774 29.2238 81.1801 27.6268C80.603 26.2919 78.9438 27.5314 78.0541 28.0081C77.2846 28.4134 76.6353 28.9616 76.1063 29.6052L78.7755 29.0093L79.8575 37.8288L74.6636 38.377C74.5914 38.9729 74.5193 39.5927 74.4231 40.2125C76.7075 40.6892 79.0159 42.6438 79.8094 43.6211C80.2904 44.1932 80.6751 44.8367 80.9637 45.5042C81.6851 46.2908 82.5507 47.0535 83.4885 47.7448C83.9695 47.2204 84.5706 46.7913 85.1958 46.6006H85.2199H85.292H85.3641C85.9172 46.553 88.7306 46.982 89.9089 48.1977C90.0532 48.3407 90.1734 48.5076 90.2696 48.6983C90.486 49.0796 90.6784 49.5087 90.7505 49.9378C91.2074 49.8424 91.6643 49.7232 92.1211 49.5087C92.9627 49.1273 93.5399 48.6029 93.9005 48.0308C94.0689 47.721 94.2132 47.4111 94.3334 47.0774C94.3334 47.0297 94.3574 46.9582 94.3815 46.8867C94.3815 46.8628 94.3815 46.839 94.3815 46.8152C94.6941 45.0513 93.7322 43.0967 92.8185 42.2386C92.2654 41.7142 91.6402 41.3089 91.0871 40.7845C90.9429 40.6415 90.9188 40.3555 90.9669 40.1171C91.0391 39.6642 91.2314 39.259 91.4238 38.8776C92.8666 35.8504 91.2795 34.9684 89.2596 34.3487C89.2115 34.3487 89.2115 34.2056 89.2115 34.158C89.6444 29.8436 87.7447 28.1512 84.2099 29.1046L84.234 29.0569Z"
      fill="#E55E25"
    />
<path
      d="M62.0152 18.9736C62.0152 18.9736 62.1114 19.1166 62.1595 19.1881C63.0252 20.7852 62.3038 22.7875 61.6064 24.7182C61.6064 24.7182 61.6064 24.7182 61.6064 24.7421L66.8004 21.8102L76.7315 11.5604L71.9704 6.31641L62.0152 18.9736Z"
      fill="#E55E25"
    />
<path
      d="M49.7517 21.8824C50.1124 22.2876 50.4491 22.7405 50.7857 23.2649C51.0983 22.7882 51.3869 22.2161 51.6995 21.6202C52.4208 20.2139 53.3106 18.4976 54.8014 17.6157L58.4564 9.84496L51.988 8.08105L49.7517 21.8824Z"
      fill="#E55E25"
    />
<path
      d="M68.9405 32.0127C68.9405 32.4656 68.8684 32.9423 68.7482 33.4191C70.6959 33.7528 71.8742 34.3248 72.5715 35.3021C73.0765 36.0172 73.2448 36.8754 73.2689 37.805L74.1586 37.7096L74.5674 37.662H74.6876L79.1121 37.1852L78.2224 29.7959L75.5052 30.3918L74.88 30.5348L74.6635 30.5825L74.7116 30.8447L74.4952 30.8924L68.9646 31.9889L68.9405 32.0127Z"
      fill="#E55E25"
    />
<path
      d="M67.1611 22.4062L66.1512 22.9783L65.1412 23.5503L61.2457 25.7433C61.2457 25.7433 61.2457 25.791 61.2457 25.8148C61.39 25.8148 61.5343 25.8148 61.6786 25.8148L63.5301 25.2189L64.1794 25.0044L64.8286 24.7898L72.9803 22.1917L73.7738 26.1247L80.2423 23.3596L77.5972 16.5186L67.1611 22.4062Z"
      fill="#E55E25"
    />
<path
      d="M59.1298 9.91624L58.4084 11.4418L57.687 12.9673L55.6912 17.2341C55.9797 17.1387 56.2923 17.091 56.629 17.0672C56.7251 17.0672 56.8454 17.0672 56.9656 17.0672C57.0618 17.0672 57.182 17.0672 57.2782 17.0672C57.5668 17.0672 57.8553 17.1149 58.1679 17.1864C59.7069 17.3532 60.813 17.7585 61.5344 18.4021L66.9929 9.27265L61.2699 5.41113L59.1538 9.91624H59.1298Z"
      fill="#E55E25"
    />
<path
      d="M68.123 35.4207C67.9787 35.7782 67.8104 36.1596 67.618 36.5171C67.4978 36.7555 67.3535 37.0177 67.2092 37.2799C66.9688 37.6851 66.7283 38.1142 66.4638 38.5194C66.3916 38.6386 66.2955 38.7578 66.2233 38.9008C66.1271 39.02 66.055 39.1392 65.9829 39.2822C64.3477 41.6182 62.1595 43.978 59.7789 45.9326C61.4141 45.7896 62.8328 45.8372 64.0111 46.1233C68.4837 47.1482 72.8601 49.7703 77.1163 52.2969C77.7655 52.6783 78.4148 53.0597 79.04 53.4411C79.3045 53.6079 79.593 53.7748 79.8575 53.9178C80.9156 51.2005 81.2041 48.5069 80.2663 46.2186C80.074 45.7657 79.8575 45.3367 79.593 44.9314C79.4488 44.7169 79.3045 44.5262 79.1362 44.3355C79.0881 44.2879 79.04 44.2163 78.9919 44.1687C78.1262 43.2152 76.1544 41.6658 74.3269 41.2606C74.2548 41.2606 74.1826 41.2368 74.0864 41.2129C74.0384 41.2129 73.9662 41.2129 73.9181 41.1891C73.2208 41.0938 72.5475 41.1891 71.9944 41.5943C72.1147 40.474 72.283 39.4967 72.3551 38.6386C72.3551 38.5194 72.3551 38.4002 72.3551 38.281C72.3551 38.1619 72.3551 38.0427 72.3551 37.9235C72.3551 36.0881 71.6578 34.9439 68.5077 34.4434C68.4115 34.7771 68.2913 35.0869 68.147 35.4445L68.123 35.4207Z"
      fill="#E55E25"
    />
<path
      d="M90.0292 50.5572C90.0292 50.5572 90.0292 50.4857 90.0292 50.4618C90.0532 50.3188 90.0292 50.152 90.0051 49.9613C89.957 49.6991 89.8368 49.413 89.6204 49.0555C88.9711 47.8636 85.9654 47.3392 85.4363 47.3631H85.3882C84.9554 47.5061 84.5226 47.7921 84.1619 48.1497C84.0417 48.2689 83.9214 48.4119 83.8012 48.5549C83.681 48.6979 83.5848 48.8171 83.4886 48.9601C83.2241 49.3415 83.0317 49.6991 82.9355 49.9374C81.7092 50.8432 81.9977 51.8682 82.166 52.4641C82.2622 52.8455 82.8874 53.6321 83.2 53.942C84.1619 54.9431 85.4363 55.2768 86.9513 55.2291C88.4181 55.1815 89.3799 54.4902 89.5963 53.3461C89.6685 52.9647 89.6685 51.892 89.2356 51.3199C89.4761 51.1769 89.6925 51.0339 89.8368 50.8671C89.9089 50.7717 89.9811 50.6525 90.0292 50.5095V50.5572Z"
      fill="#E55E25"
    />
<path
      d="M73.3169 27.0305L73.2448 26.6968L73.1727 26.3631L72.5234 23.0498L63.8427 25.8148L63.2175 26.0055C63.2175 26.0055 63.458 26.0532 63.5542 26.1009C65.2855 26.5776 66.8966 27.4834 67.642 28.27C67.7382 28.3654 67.8344 28.4845 67.9306 28.6037C68.0027 28.6991 68.0749 28.7944 68.123 28.8898C68.1951 28.9851 68.2432 29.0805 68.3153 29.1758C68.652 29.7717 68.8684 30.4391 68.9405 31.2019C68.9405 31.2496 68.9405 31.2972 68.9405 31.3449L73.9662 30.3438L73.9181 30.1054L73.3169 27.0782V27.0305Z"
      fill="#E55E25"
    />
<path
      d="M49.2948 22.8353C49.2948 22.8353 49.1265 22.6208 49.0303 22.5254C48.6456 22.0964 48.2608 21.7865 47.8761 21.572C47.9001 22.001 47.9482 22.4301 47.9963 22.8591C48.0925 24.0271 48.2368 25.2428 48.4051 26.4823C48.4532 26.816 48.5013 27.1497 48.5494 27.4834C48.5975 27.8172 48.6456 28.127 48.6937 28.4607C48.7658 28.9136 48.862 29.3665 48.9341 29.8433C48.9341 29.8909 48.9341 29.9386 48.9582 29.9863C48.9582 30.0578 48.9822 30.1293 49.0063 30.177C49.0063 30.2962 49.0544 30.3915 49.0784 30.5107C49.1025 30.6775 49.1506 30.8444 49.1746 31.0112C49.2227 31.2258 49.2708 31.4641 49.3189 31.6787C49.3429 31.7979 49.367 31.917 49.391 32.0124C49.4151 32.1316 49.4391 32.2507 49.4632 32.3461C49.5593 32.7275 49.6315 33.1327 49.7277 33.5141C49.7517 33.6571 49.7998 33.7763 49.8238 33.9193C49.8479 34.0623 49.896 34.1815 49.92 34.3245C49.9681 34.5629 50.0403 34.7774 50.0884 35.0158C50.1124 35.1111 50.1364 35.2065 50.1605 35.3257C50.1605 35.3257 50.1605 35.3257 50.1605 35.3495C50.1845 35.4448 50.2086 35.5402 50.2567 35.6355C50.2567 35.6355 50.2567 35.6355 50.2567 35.6832C50.2807 35.7786 50.3048 35.8739 50.3529 35.9693C50.3529 35.9931 50.3529 36.0169 50.3529 36.0408C50.3769 36.1599 50.425 36.2553 50.449 36.3745C50.4731 36.4698 50.4971 36.5652 50.5452 36.6605C50.5452 36.6605 50.5452 36.6605 50.5452 36.6843C50.5933 36.8035 50.6174 36.9465 50.6655 37.0657C50.6655 37.1134 50.6895 37.1611 50.6895 37.1849C50.7136 37.2803 50.7617 37.3756 50.7857 37.471C50.8338 37.6378 50.8819 37.7808 50.954 37.9477C50.9781 38.043 51.0262 38.1384 51.0502 38.2337C51.0983 38.4006 51.1464 38.5436 51.1945 38.7105C51.1945 38.7343 51.1945 38.7581 51.2185 38.782C51.2907 38.9488 51.3388 39.1395 51.4109 39.3064C51.483 39.5447 51.5792 39.7593 51.6514 39.9738C51.6995 40.093 51.7235 40.1883 51.7716 40.3075C51.8197 40.4267 51.8437 40.522 51.8918 40.6412C52.2285 41.4993 52.5892 42.3813 52.9739 43.2394C53.1422 43.6446 53.3105 44.026 53.5029 44.4312C53.6712 44.7888 53.8636 45.1702 54.056 45.5277C54.1522 45.7184 54.2484 45.9091 54.3445 46.0998C54.4648 46.3143 54.561 46.5288 54.6812 46.7434H54.7774L55.3785 46.5765C55.6911 46.505 55.9797 46.4335 56.2923 46.362C56.7732 46.2666 57.2541 46.1713 57.711 46.0998C60.284 44.2644 62.7848 41.833 64.6844 39.3064C64.7806 39.1872 64.8768 39.068 64.9489 38.925C65.0451 38.8058 65.1173 38.6866 65.2134 38.5436C66.007 37.4233 66.6562 36.2791 67.1371 35.1826C67.2814 34.8489 67.4257 34.5152 67.5219 34.1815C67.6421 33.8478 67.7383 33.5141 67.8104 33.1804C67.9066 32.799 67.9547 32.4414 67.9788 32.0839C67.9788 32.0362 67.9788 32.0124 67.9788 31.9647C67.9788 31.8932 67.9788 31.7979 67.9788 31.7263C67.9788 31.6787 67.9788 31.6548 67.9788 31.6072C67.9788 31.5357 67.9788 31.4403 67.9788 31.3688C67.9788 31.3211 67.9788 31.2973 67.9788 31.2496C67.9307 30.5584 67.7383 29.9386 67.4016 29.4142C67.3295 29.3189 67.2814 29.2235 67.1852 29.1282C67.1131 29.0567 67.065 28.9613 66.9929 28.8898C66.9929 28.8898 66.9929 28.8898 66.9688 28.866C66.1993 28.0794 64.444 27.1736 62.7126 26.8399C62.5924 26.816 62.4481 26.7922 62.3279 26.7683C62.1836 26.7683 62.0634 26.7445 61.9191 26.7207C61.1737 26.6492 60.4763 26.7207 59.8752 26.9829C59.8752 26.9829 59.8752 26.9829 59.8752 26.959C59.8992 26.816 59.9233 26.6968 59.9714 26.5776C59.9954 26.4823 60.0194 26.387 60.0435 26.2916C60.0435 26.2439 60.0435 26.2201 60.0675 26.1724C60.1156 26.0532 60.1397 25.9341 60.1637 25.8149C60.2118 25.648 60.2599 25.505 60.308 25.3382C61.0294 23.1929 62.0393 21.0952 61.366 19.6889C61.366 19.6889 61.366 19.6651 61.366 19.6412C61.3179 19.5459 61.2699 19.4505 61.1977 19.379C61.1256 19.3075 61.0775 19.236 61.0053 19.1406C60.4523 18.6162 59.5385 18.2587 58.0477 18.0918C57.687 17.9965 57.3503 17.9727 57.0377 17.9727C56.9175 17.9727 56.8213 17.9727 56.7251 17.9727C56.6049 17.9727 56.5087 17.9727 56.3885 18.0203C55.8835 18.1157 55.4266 18.3064 55.0419 18.5686C54.8255 18.7116 54.6331 18.8784 54.4648 19.0691C54.1522 19.4028 53.8636 19.7842 53.5991 20.1895C52.5651 21.7865 51.8918 23.8126 50.7136 24.8853C50.3529 24.194 49.9922 23.5981 49.6074 23.0975C49.5112 22.9783 49.4391 22.8591 49.3429 22.7638L49.2948 22.8353Z"
      fill="#E55E25"
    />
<path
      d="M54.4407 58.0663C54.4407 58.0663 54.5369 57.8517 54.561 57.7326C54.6572 57.4227 54.7533 57.1128 54.8255 56.7791C54.9457 56.2547 55.0419 55.7303 55.114 55.2059C55.3304 53.1083 54.9698 50.8438 53.8877 48.4363C53.7434 48.1264 53.5991 47.8166 53.4308 47.5067C53.4067 47.459 53.3827 47.3875 53.3587 47.3398C53.3587 47.316 53.3346 47.2683 53.3106 47.2445C53.1903 47.0299 53.0942 46.8154 52.9739 46.6009C52.9739 46.5771 52.9499 46.5294 52.9258 46.5055C52.8296 46.3387 52.7575 46.1718 52.6613 46.0288C52.493 45.6951 52.3487 45.3852 52.1804 45.0515C51.988 44.6225 51.7716 44.2172 51.5792 43.7882C51.1224 42.8109 50.7136 41.8097 50.3288 40.8324C50.2567 40.6656 50.1846 40.4749 50.1124 40.308C50.1124 40.2604 50.0643 40.1889 50.0403 40.1412C49.9922 40.022 49.9681 39.9267 49.92 39.8075C49.872 39.6883 49.8479 39.5929 49.7998 39.4976C49.7758 39.4261 49.7517 39.3546 49.7277 39.3069C49.5594 38.854 49.4151 38.4011 49.2708 37.9482C49.2227 37.8052 49.1746 37.686 49.1265 37.543C49.0784 37.4 49.0303 37.2808 49.0063 37.1378C48.9341 36.8994 48.862 36.6849 48.7899 36.4465C48.7899 36.4465 48.7899 36.4465 48.7899 36.4227C48.7658 36.3273 48.7418 36.232 48.7177 36.1366C48.6937 36.0175 48.6456 35.9221 48.6215 35.8029C48.6215 35.7791 48.6215 35.7314 48.5975 35.7076C48.5975 35.6599 48.5735 35.6122 48.5494 35.5646C48.5254 35.4692 48.4773 35.35 48.4532 35.2547C48.4532 35.1832 48.4051 35.0878 48.3811 35.0163C48.3811 35.0163 48.3811 34.9687 48.3811 34.9448C48.357 34.8495 48.333 34.778 48.3089 34.6826C48.3089 34.6826 48.3089 34.6349 48.3089 34.6111C48.2849 34.4919 48.2609 34.3966 48.2128 34.2774C48.1887 34.1344 48.1406 34.0152 48.1166 33.8722C47.9723 33.3239 47.8521 32.7995 47.7318 32.2513C47.7078 32.1321 47.6837 32.0129 47.6597 31.9176C47.6597 31.8937 47.6597 31.8699 47.6597 31.8461C47.6597 31.7507 47.6116 31.6792 47.6116 31.5839C47.6116 31.5124 47.5635 31.417 47.5635 31.3455C47.5154 31.1786 47.4914 31.0118 47.4673 30.8211L47.4192 30.6304C47.3952 30.4874 47.3711 30.3444 47.3231 30.2013C47.3231 30.0822 47.275 29.9868 47.2509 29.8676C47.2509 29.8438 47.2509 29.7961 47.2509 29.7723C47.2509 29.7008 47.2269 29.6293 47.2028 29.5339C47.1547 29.2956 47.1307 29.081 47.0826 28.8665C46.6257 26.3875 46.3372 23.98 46.1448 21.6917C46.1207 21.3341 46.0967 20.9766 46.0726 20.619C46.0486 20.2615 46.0246 19.904 46.0005 19.5702C45.4955 10.6792 46.5776 4.29102 46.5776 4.29102C44.8463 6.69851 43.1871 9.05833 41.6 11.4181C24.2387 36.9471 -1.17822 65.0027 0.0481398 74.9426C0.24051 76.5396 0.673342 77.7791 1.34664 78.661C1.77947 79.2331 2.30849 79.6622 2.95774 79.9244C7.6708 81.7836 49.8479 70.5328 54.4407 58.0663Z"
      fill="#E55E25"
    />
</g>
<defs>
<clipPath id="clip0_119_1508">
<rect width="104" height="84" fill="white" />
</clipPath>
</defs>
</svg>
